# AST/ASF file generated using VICON BodyLanguage
# -----------------------------------------------
:version 1.10
:name VICON
:units
  mass 1.0
  length 0.45
  angle deg
:documentation
   .ast/.asf automatically generated from VICON data using
   VICON BodyBuilder and BodyLanguage model FoxedUp or BRILLIANT.MOD
:root
   order TX TY TZ RX RY RZ
   axis XYZ
   position 0 0 0  
   orientation 0 -0 0 
:bonedata
  begin
     id 1 
     name lhipjoint
     direction 0.500677 -0.737119 0.453848 
     length 2.34727 
     axis 0 -0 0  XYZ
  end
  begin
     id 2 
     name lfemur
     direction 0.34202 -0.939693 0  
     length 7.53653  
     axis 0 -0 20  XYZ
    dof rx ry rz
    limits (-160.0 20.0)
           (-70.0 70.0)
           (-60.0 70.0)
  end
  begin
     id 3 
     name ltibia
     direction 0.34202 -0.939693 0   
     length 6.85572   
     axis 0 -0 20   XYZ
    dof rx
    limits (-10.0 170.0)
  end
  begin
     id 4 
     name lfoot
     direction 0.155313 -0.426718 0.890949   
     length 2.18324   
     axis -90 -1.13533e-015 20   XYZ
    dof rx rz
    limits (-45.0 90.0)
           (-70.0 20.0)
  end
  begin
     id 5 
     name ltoes
     direction 1.53474e-011 -4.21647e-011 1   
     length 1.06748   
     axis -90 -1.13533e-015 20   XYZ
    dof rx
    limits (-90.0 20.0)
  end
  begin
     id 6 
     name rhipjoint
     direction -0.632471 -0.659587 0.406111   
     length 2.62319  
     axis 0 -0 0  XYZ 
  end
  begin
     id 7 
     name rfemur
     direction -0.34202 -0.939693 0   
     length 7.21735   
     axis 0 -0 -20   XYZ
    dof rx ry rz
    limits (-160.0 20.0)
           (-70.0 70.0)
           (-70.0 60.0)
  end
  begin
     id 8 
     name rtibia
     direction -0.34202 -0.939693 0   
     length 7.02558   
     axis 0 -0 -20   XYZ
    dof rx
    limits (-10.0 170.0)
 end
 begin
     id 9 
     name rfoot
     direction -0.16057 -0.441164 0.882945   
     length 2.10014  
     axis -90 1.13533e-015 -20   XYZ
    dof rx rz
    limits (-45.0 90.0)
           (-20.0 70.0)
  end
  begin
     id 10 
     name rtoes
     direction -1.53553e-011 -4.2192e-011 1   
     length 1.02554   
     axis -90 1.13533e-015 -20   XYZ
    dof rx
    limits (-90.0 20.0)
  end
  begin
     id 11 
     name lowerback
     direction 0.0401429 0.998861 -0.0258085   
     length 1.80848   
     axis 0 -0 0   XYZ
    dof rx ry rz
    limits (-20.0 45.0)
           (-30.0 30.0)
           (-30.0 30.0)
  end
  begin
     id 12 
     name upperback
     direction -0.0130978 0.999914 -0.000352645   
     length 1.8116   
     axis 0 -0 0   XYZ
    dof rx ry rz
    limits (-20.0 45.0)
           (-30.0 30.0)
           (-30.0 30.0)
  end
  begin
     id 13 
     name thorax
     direction -0.0300198 0.999453 0.0138573   
     length 1.81778   
     axis 0 -0 0   XYZ
    dof rx ry rz
    limits (-20.0 45.0)
           (-30.0 30.0)
           (-30.0 30.0)
  end
  begin
     id 14 
     name lowerneck
     direction -0.0401726 0.999191 -0.00173647   
     length 2.10594   
     axis 0 -0 0   XYZ
    dof rx ry rz
    limits (-20.0 45.0)
           (-30.0 30.0)
           (-30.0 30.0)
  end
  begin
     id 15 
     name upperneck
     direction 0.0119835 0.998501 0.0534085   
     length 2.07325   
     axis 0 -0 0   XYZ
    dof rx ry rz
    limits (-20.0 45.0)
           (-30.0 30.0)
           (-30.0 30.0)
  end
  begin
     id 16
     name head
     direction 0.00628309 0.999826 0.0175921  
     length 2.15096  
     axis 0 -0 0   XYZ
    dof rx ry rz
    limits (-20.0 45.0)
           (-30.0 30.0)
           (-30.0 30.0)
  end
  begin
     id 17 
     name lclavicle
     direction 0.895501 0.429681 -0.115981  
     length 4.18092  
     axis 0 -0 0   XYZ
    dof ry rz
    limits (-20.0 10.0)
           (0.0 20.0)
  end
  begin
     id 18 
     name lhumerus
     direction 1 -4.48961e-011 -3.38433e-028   
     length 5.77237   
     axis 180 -30 -90   XYZ
    dof rx ry rz
    limits (-60.0 90.0)
           (-90.0 90.0)
           (-90.0 90.0)
  end
  begin
     id 19
     name lradius
     direction 1 -4.4901e-011 1.11983e-026   
     length 2.91878   
     axis 180 -30 -90   XYZ
    dof rx
    limits (-10.0 170.0)
  end
  begin
     id 20
     name lwrist
     direction 1 -4.48934e-011 1.88176e-026   
     length 1.45939   
     axis -1.23311e-014 90 90   XYZ
    dof ry
    limits (-180.0 0.0)
 end
  begin
     id 21 
     name lhand
     direction 1 -4.4895e-011 3.76352e-026   
     length 1.06566   
     axis -2.40147e-014 90 90   XYZ
    dof rx rz
    limits (-90.0 90.0)
           (-45.0 45.0)
  end
  begin
     id 22 
     name lfingers
     direction 1 -4.49005e-011 7.52705e-026   
     length 0.859162   
     axis -4.80295e-014 90 90   XYZ
    dof rx
    limits (0.0 90.0)
  end
  begin
     id 23
     name lthumb
     direction 0.707107 -6.34885e-011 0.707107   
     length 1.23359   
     axis -90 45 -9.86935e-015   XYZ
    dof rx rz
    limits (-45.0 45.0)
           (-45.0 45.0)
  end
  begin
     id 24 
     name rclavicle
     direction -0.91006 0.40451 -0.0903492   
     length 4.23293  
     axis 0 -0 0   XYZ 
    dof ry rz
    limits (-10.0 20.0)
           (-20.0 0.0)
  end
  begin
     id 25 
     name rhumerus
     direction -1 -4.4897e-011 1.7415e-027  
     length 5.49854   
     axis 180 30 90   XYZ
    dof rx ry rz
    limits (-90.0 60.0)
           (-90.0 90.0)
           (-90.0 90.0)
  end
  begin
     id 26 
     name rradius
     direction -1 -4.48963e-011 1.21259e-026   
     length 3.1186   
     axis 180 30 90   XYZ
    dof rx
    limits (-10.0 170.0)
  end
  begin
     id 27 
     name rwrist
     direction -1 -4.48967e-011 1.88176e-026   
     length 1.5593   
     axis -1.23311e-014 -90 -90   XYZ
    dof ry
    limits (-180.0 0.0)
  end
  begin
     id 28
     name rhand
     direction -1 -4.4895e-011 3.76352e-026   
     length 0.71207   
     axis -2.40147e-014 -90 -90   XYZ
    dof rx rz
    limits (-90.0 90.0)
           (-45.0 45.0)
  end
  begin
     id 29
     name rfingers
     direction -1 -4.49005e-011 7.52705e-026   
     length 0.574089   
     axis -4.80295e-014 -90 -90   XYZ
    dof rx
    limits (0.0 90.0)
  end
  begin
     id 30
     name rthumb
     direction -0.707107 -6.34982e-011 0.707107   
     length 0.824281   
     axis -90 -45 9.86935e-015   XYZ
    dof rx rz
    limits (-45.0 45.0)
           (-45.0 45.0)
  end
:hierarchy
  begin
    root lhipjoint rhipjoint lowerback
    lhipjoint lfemur
    lfemur ltibia
    ltibia lfoot
    lfoot ltoes
    rhipjoint rfemur
    rfemur rtibia
    rtibia rfoot
    rfoot rtoes
    lowerback upperback
    upperback thorax
    thorax lowerneck lclavicle rclavicle
    lowerneck upperneck
    upperneck head
    lclavicle lhumerus
    lhumerus lradius
    lradius lwrist
    lwrist lhand lthumb
    lhand lfingers
    rclavicle rhumerus
    rhumerus rradius
    rradius rwrist
    rwrist rhand rthumb
    rhand rfingers
  end

#!OML:ASF C:\ViconDB\ViconDB\414\Spring2016\042216\male.ASF
:FULLY-SPECIFIED
:DEGREES
407
root 25.2048 19.6281 5.95861 -298.261 -84.5039 -48.5081
lowerback 4.84147 -4.17363 9.15035
upperback 0.736184 -5.08126 0.757227
thorax -2.66989 -2.62748 -3.92761
lowerneck 0.0444685 10.6471 -4.40925
upperneck -12.3574 13.3724 -5.95141
head -3.93907 6.98081 -1.67342
rclavicle -5.05907e-014 1.98785e-014
rhumerus -8.40812 -12.1417 -31.1917
rradius 81.0022
rwrist 2.27828
rhand 4.00709 -30.5428
rfingers 7.12502
rthumb 29.4225 -58.2331
lclavicle -5.05907e-014 1.98785e-014
lhumerus -32.9035 38.5894 36.9848
lradius 80.343
lwrist 31.2512
lhand -36.3151 15.2027
lfingers 7.12502
lthumb -9.41382 44.9725
rfemur -30.1363 -2.43749 31.1613
rtibia 66.3656
rfoot 5.91348 16.9872
rtoes -14.2731
lfemur -35.817 3.48468 -6.06012
ltibia 39.8462
lfoot -7.91976 10.438
ltoes -17.9175
408
root 25.3669 19.6199 5.89846 -313.741 -83.0138 -33.5004
lowerback 5.05773 -4.13375 9.39791
upperback 0.802531 -4.99544 0.721246
thorax -2.73381 -2.58789 -4.09684
lowerneck 0.409059 10.5743 -4.09177
upperneck -12.5254 13.29 -5.78091
head -4.05757 6.93041 -1.69934
rclavicle 3.84648e-014 -3.91606e-014
rhumerus -9.80721 -12.7195 -30.4195
rradius 81.08
rwrist 2.85519
rhand 4.59236 -30.0629
rfingers 7.12502
rthumb 29.9811 -57.6536
lclavicle 3.84648e-014 -3.91606e-014
lhumerus -30.7443 38.0955 38.0248
lradius 81.8533
lwrist 30.0732
lhand -35.5466 12.7755
lfingers 7.12502
lthumb -8.67226 42.5773
rfemur -27.7916 -1.47323 31.5141
rtibia 62.4275
rfoot 6.90236 16.4797
rtoes -13.2026
lfemur -38.954 4.74761 -6.06567
ltibia 47.9516
lfoot -9.93548 8.97428
ltoes -17.518
409
root 25.5352 19.581 5.83404 -323.234 -81.3612 -24.6653
lowerback 5.52166 -3.96267 9.83273
upperback 0.971529 -4.70893 0.18723
thorax -2.85566 -2.45128 -4.89911
lowerneck 0.807228 10.3608 -2.51424
upperneck -12.7553 13.0677 -5.81136
head -4.09308 6.76527 -1.9782
rclavicle 9.69075e-014 -3.43897e-014
rhumerus -12.1463 -13.8001 -30.4242
rradius 81.2211
rwrist 3.81681
rhand 4.71181 -30.1595
rfingers 7.12502
rthumb 30.095 -57.7295
lclavicle 9.69075e-014 -3.43897e-014
lhumerus -27.7722 36.97 38.9395
lradius 82.743
lwrist 28.6131
lhand -34.8954 9.44471
lfingers 7.12502
lthumb -8.04379 39.2716
rfemur -25.3151 0.0411824 31.8498
rtibia 58.39
rfoot 8.3905 16.1373
rtoes -10.6077
lfemur -41.5686 5.48061 -5.67252
ltibia 55.6412
lfoot -12.3277 7.96673
ltoes -16.6282
410
root 25.7009 19.5196 5.7677 -329.352 -79.5817 -19.4293
lowerback 6.43854 -3.87341 9.41834
upperback 0.920182 -4.50137 0.675394
thorax -3.31828 -2.36233 -4.12103
lowerneck 1.59035 10.3651 -2.88228
upperneck -13.0605 13.0025 -5.91622
head -4.37921 6.7677 -2.02936
rclavicle -3.03395e-014 2.27608e-014
rhumerus -13.5106 -14.1269 -29.5188
rradius 81.1182
rwrist 4.37429
rhand 4.21137 -30.2182
rfingers 7.12502
rthumb 29.6175 -57.8741
lclavicle -3.03395e-014 2.27608e-014
lhumerus -26.5782 36.1757 40.5783
lradius 83.6911
lwrist 26.3365
lhand -34.7673 6.42688
lfingers 7.12502
lthumb -7.92022 36.2585
rfemur -22.6227 1.53075 32.3421
rtibia 54.2549
rfoot 9.77892 16.3498
rtoes -8.23902
lfemur -43.8082 6.01658 -5.0273
ltibia 62.8648
lfoot -14.2764 7.66869
ltoes -17.0651
411
root 25.867 19.4367 5.70145 -334.474 -77.8709 -15.339
lowerback 7.33424 -3.85195 9.1998
upperback 1.071 -4.39341 0.995028
thorax -3.6031 -2.31194 -3.62889
lowerneck 2.12326 10.4397 -3.63817
upperneck -13.4885 13.0186 -5.84776
head -4.70857 6.81812 -1.95935
rclavicle -4.18193e-014 4.80065e-014
rhumerus -14.7463 -14.764 -29.2675
rradius 81.0909
rwrist 4.78319
rhand 3.45872 -30.5904
rfingers 7.12502
rthumb 28.8988 -58.3715
lclavicle -4.18193e-014 4.80065e-014
lhumerus -25.5092 35.7504 42.2823
lradius 84.4069
lwrist 23.899
lhand -34.9051 4.18887
lfingers 7.12502
lthumb -8.05315 34.0154
rfemur -19.8581 3.31436 32.7778
rtibia 50.0718
rfoot 10.9372 16.7909
rtoes -8.33522
lfemur -45.709 6.33391 -4.36642
ltibia 69.5367
lfoot -15.9427 7.62317
ltoes -16.6777
412
root 26.0321 19.3228 5.63261 -339.634 -76.1872 -11.2609
lowerback 8.24378 -3.91367 9.19509
upperback 1.30457 -4.39582 0.772812
thorax -3.88264 -2.31773 -3.81016
lowerneck 2.45805 10.4846 -3.54448
upperneck -14.1853 13.0259 -6.00962
head -4.50168 6.85826 -1.86034
rclavicle 3.60297e-014 -2.47487e-014
rhumerus -16.3967 -15.7435 -30.0519
rradius 81.1008
rwrist 5.11727
rhand 2.3925 -30.8424
rfingers 7.12502
rthumb 27.8799 -58.7933
lclavicle 3.60297e-014 -2.47487e-014
lhumerus -24.4719 34.7703 43.5857
lradius 84.931
lwrist 21.8131
lhand -35.9222 3.17887
lfingers 7.12502
lthumb -9.03471 32.9654
rfemur -17.1122 5.54301 32.9683
rtibia 46.0378
rfoot 12.7745 17.0163
rtoes -5.44207
lfemur -47.4526 6.75396 -3.84794
ltibia 75.7718
lfoot -17.3751 7.14225
ltoes -16.6498
413
root 26.1955 19.1941 5.55599 -344.547 -74.6534 -7.33184
lowerback 9.01198 -3.94247 8.82217
upperback 1.65316 -4.41725 0.482224
thorax -3.94129 -2.31759 -3.87147
lowerneck 2.62542 10.5617 -3.53878
upperneck -14.6419 13.0936 -6.098
head -4.66314 6.9054 -1.9192
rclavicle 3.37934e-015 -1.2921e-014
rhumerus -17.8758 -16.8404 -31.3308
rradius 80.9622
rwrist 5.01276
rhand 0.90588 -31.2226
rfingers 7.12502
rthumb 26.4578 -59.3958
lclavicle 3.37934e-015 -1.2921e-014
lhumerus -23.7206 34.0489 44.9643
lradius 85.4858
lwrist 20.2444
lhand -36.6029 3.70055
lfingers 7.12502
lthumb -9.69152 33.4576
rfemur -14.4659 7.84031 33.046
rtibia 42.0505
rfoot 14.0386 17.806
rtoes -3.36105
lfemur -49.0554 7.19613 -3.46059
ltibia 81.3751
lfoot -18.4131 6.8367
ltoes -16.2432
414
root 26.3697 18.9883 5.49866 -349.146 -73.1069 -3.6583
lowerback 9.74574 -4.06373 8.3277
upperback 2.02793 -4.5845 0.243577
thorax -3.9579 -2.38692 -3.79148
lowerneck 2.53607 10.8315 -3.61251
upperneck -14.9043 13.3959 -6.48915
head -4.70368 7.08338 -2.04255
rclavicle -1.04362e-015 8.34896e-015
rhumerus -19.0118 -17.7932 -32.8674
rradius 80.5671
rwrist 4.65476
rhand -0.84091 -31.3548
rfingers 7.12502
rthumb 24.7847 -59.7688
lclavicle -1.04362e-015 8.34896e-015
lhumerus -23.54 33.8011 46.4889
lradius 86.1622
lwrist 19.8455
lhand -36.9156 4.34974
lfingers 7.12502
lthumb -9.99325 34.0925
rfemur -11.9846 9.80023 32.9824
rtibia 38.1846
rfoot 14.0683 18.4845
rtoes -5.8725
lfemur -50.975 7.52495 -3.22005
ltibia 86.7342
lfoot -19.282 6.68451
ltoes -15.9333
415
root 26.5297 18.8271 5.4296 -352.784 -71.4194 -0.778631
lowerback 10.2254 -4.1385 7.87978
upperback 2.38235 -4.7139 0.029218
thorax -3.84974 -2.43586 -3.73131
lowerneck 2.34812 11.174 -3.78946
upperneck -14.9646 13.8064 -6.87362
head -4.67111 7.31651 -2.13921
rclavicle -4.06018e-014 1.66979e-014
rhumerus -20.4077 -19.0302 -34.3693
rradius 79.8426
rwrist 4.79833
rhand -1.18869 -30.3047
rfingers 7.12502
rthumb 24.4513 -58.7641
lclavicle -4.06018e-014 1.66979e-014
lhumerus -23.4704 33.502 48.4099
lradius 86.5809
lwrist 19.1697
lhand -37.0362 5.31679
lfingers 7.12502
lthumb -10.1096 35.0539
rfemur -9.52741 12.2589 33.1066
rtibia 34.0377
rfoot 15.384 18.9241
rtoes -4.48975
lfemur -52.7089 8.06471 -2.8496
ltibia 91.3381
lfoot -20.0848 6.33741
ltoes -16.0459
